<mxfile host="app.diagrams.net" modified="2023-11-02T21:00:30.105Z" agent="Mozilla/5.0 (Windows NT 10.0; Win64; x64) AppleWebKit/537.36 (KHTML, like Gecko) Chrome/118.0.0.0 Safari/537.36" etag="kaXrjYkr868eXRF1RmQR" version="21.3.5" type="onedrive">
  <diagram name="Page-1" id="shful-mJ8hCf2PVs2nIN">
    <mxGraphModel grid="1" page="1" gridSize="10" guides="1" tooltips="1" connect="1" arrows="1" fold="1" pageScale="1" pageWidth="827" pageHeight="1169" math="0" shadow="0">
      <root>
        <mxCell id="0" />
        <mxCell id="1" parent="0" />
        <mxCell id="5Ipa9rE2dUlItKSwBNTH-1" value="Timetable Website System" style="swimlane;whiteSpace=wrap;html=1;" vertex="1" parent="1">
          <mxGeometry x="234" y="270" width="360" height="410" as="geometry" />
        </mxCell>
        <mxCell id="5Ipa9rE2dUlItKSwBNTH-22" style="edgeStyle=orthogonalEdgeStyle;rounded=0;orthogonalLoop=1;jettySize=auto;html=1;entryX=0;entryY=0.5;entryDx=0;entryDy=0;exitX=0.5;exitY=1;exitDx=0;exitDy=0;" edge="1" parent="5Ipa9rE2dUlItKSwBNTH-1" source="5Ipa9rE2dUlItKSwBNTH-8" target="5Ipa9rE2dUlItKSwBNTH-21">
          <mxGeometry relative="1" as="geometry" />
        </mxCell>
        <mxCell id="5Ipa9rE2dUlItKSwBNTH-8" value="Login" style="ellipse;whiteSpace=wrap;html=1;" vertex="1" parent="5Ipa9rE2dUlItKSwBNTH-1">
          <mxGeometry x="26" y="140" width="84" height="50" as="geometry" />
        </mxCell>
        <mxCell id="5Ipa9rE2dUlItKSwBNTH-15" value="Timetable viewer" style="ellipse;whiteSpace=wrap;html=1;" vertex="1" parent="5Ipa9rE2dUlItKSwBNTH-1">
          <mxGeometry x="166" y="80" width="94" height="60" as="geometry" />
        </mxCell>
        <mxCell id="5Ipa9rE2dUlItKSwBNTH-17" value="" style="endArrow=classic;html=1;rounded=0;exitX=0.5;exitY=0;exitDx=0;exitDy=0;entryX=0;entryY=0.5;entryDx=0;entryDy=0;" edge="1" parent="5Ipa9rE2dUlItKSwBNTH-1" source="5Ipa9rE2dUlItKSwBNTH-8" target="5Ipa9rE2dUlItKSwBNTH-15">
          <mxGeometry relative="1" as="geometry">
            <mxPoint x="126" y="310" as="sourcePoint" />
            <mxPoint x="226" y="310" as="targetPoint" />
          </mxGeometry>
        </mxCell>
        <mxCell id="5Ipa9rE2dUlItKSwBNTH-18" value="Basic" style="edgeLabel;resizable=0;html=1;align=center;verticalAlign=middle;" connectable="0" vertex="1" parent="5Ipa9rE2dUlItKSwBNTH-17">
          <mxGeometry relative="1" as="geometry" />
        </mxCell>
        <mxCell id="5Ipa9rE2dUlItKSwBNTH-19" value="Admin section" style="swimlane;whiteSpace=wrap;html=1;" vertex="1" parent="5Ipa9rE2dUlItKSwBNTH-1">
          <mxGeometry x="126" y="190" width="204" height="200" as="geometry" />
        </mxCell>
        <mxCell id="5Ipa9rE2dUlItKSwBNTH-21" value="Admin selection hub" style="ellipse;whiteSpace=wrap;html=1;" vertex="1" parent="5Ipa9rE2dUlItKSwBNTH-19">
          <mxGeometry x="14" y="40" width="96" height="60" as="geometry" />
        </mxCell>
        <mxCell id="5Ipa9rE2dUlItKSwBNTH-24" value="" style="endArrow=classic;html=1;rounded=0;exitX=0.5;exitY=0;exitDx=0;exitDy=0;entryX=0;entryY=1;entryDx=0;entryDy=0;" edge="1" parent="5Ipa9rE2dUlItKSwBNTH-1" source="5Ipa9rE2dUlItKSwBNTH-21" target="5Ipa9rE2dUlItKSwBNTH-15">
          <mxGeometry relative="1" as="geometry">
            <mxPoint x="78" y="150" as="sourcePoint" />
            <mxPoint x="176" y="120" as="targetPoint" />
          </mxGeometry>
        </mxCell>
        <mxCell id="5Ipa9rE2dUlItKSwBNTH-25" value="Admin" style="edgeLabel;resizable=0;html=1;align=center;verticalAlign=middle;" connectable="0" vertex="1" parent="5Ipa9rE2dUlItKSwBNTH-24">
          <mxGeometry relative="1" as="geometry" />
        </mxCell>
        <mxCell id="5Ipa9rE2dUlItKSwBNTH-9" style="edgeStyle=orthogonalEdgeStyle;rounded=0;orthogonalLoop=1;jettySize=auto;html=1;entryX=0;entryY=0;entryDx=0;entryDy=0;" edge="1" parent="1" source="5Ipa9rE2dUlItKSwBNTH-2" target="5Ipa9rE2dUlItKSwBNTH-8">
          <mxGeometry relative="1" as="geometry">
            <Array as="points">
              <mxPoint x="210" y="330" />
              <mxPoint x="210" y="417" />
            </Array>
          </mxGeometry>
        </mxCell>
        <mxCell id="5Ipa9rE2dUlItKSwBNTH-2" value="Student/Lecturer" style="shape=umlActor;verticalLabelPosition=bottom;verticalAlign=top;html=1;outlineConnect=0;" vertex="1" parent="1">
          <mxGeometry x="110" y="300" width="30" height="60" as="geometry" />
        </mxCell>
        <mxCell id="5Ipa9rE2dUlItKSwBNTH-10" style="edgeStyle=orthogonalEdgeStyle;rounded=0;orthogonalLoop=1;jettySize=auto;html=1;entryX=0;entryY=1;entryDx=0;entryDy=0;" edge="1" parent="1" source="5Ipa9rE2dUlItKSwBNTH-6" target="5Ipa9rE2dUlItKSwBNTH-8">
          <mxGeometry relative="1" as="geometry">
            <Array as="points">
              <mxPoint x="210" y="530" />
              <mxPoint x="210" y="453" />
            </Array>
          </mxGeometry>
        </mxCell>
        <mxCell id="5Ipa9rE2dUlItKSwBNTH-6" value="Administrator" style="shape=umlActor;verticalLabelPosition=bottom;verticalAlign=top;html=1;outlineConnect=0;" vertex="1" parent="1">
          <mxGeometry x="110" y="500" width="30" height="60" as="geometry" />
        </mxCell>
      </root>
    </mxGraphModel>
  </diagram>
</mxfile>
